<?xml version="1.0" standalone="no"?>
<!DOCTYPE svg PUBLIC "-//W3C//DTD SVG 1.1//EN" "http://www.w3.org/Graphics/SVG/1.1/DTD/svg11.dtd" >
<!--
2013-9-30: Created.
-->
<svg>
<metadata>
Created by iconfont
</metadata>
<defs>

<font id="iconfont" horiz-adv-x="1024" >
  <font-face
    font-family="iconfont"
    font-weight="500"
    font-stretch="normal"
    units-per-em="1024"
    ascent="896"
    descent="-128"
  />
    <missing-glyph />
    
    <glyph glyph-name="bofang-copy" unicode="&#58890;" d="M512.718 894.451c-282.341 0-511.224-228.883-511.224-511.226s228.883-511.226 511.224-511.226 511.224 228.884 511.224 511.226-228.883 511.226-511.224 511.226zM512.718-76.874c-254.108 0-460.102 205.995-460.102 460.102s205.994 460.102 460.102 460.102 460.102-205.995 460.102-460.102-205.994-460.102-460.102-460.102zM744.778 419.458c-79.556 54.133-223.815 135.157-305.959 185.36-33.678 21.238-61.996 12.709-64.717-24.801-1.971-100.467 0-294.317 0-396.522 1.711-38.080 35.282-43.102 64.419-27.813 82.050 49.711 223.071 135.148 305.536 185.109-0.54 0.328 62.614 35.062 0.721 78.666z"  horiz-adv-x="1024" />

    
    <glyph glyph-name="bofang" unicode="&#58917;" d="M259.555556-128c-70.4 0-128 57.6-128 128V755.911111c0 70.4 57.6 128 128 128s128-57.6 128-128V0c0-70.4-57.6-128-128-128zM812.088889-128c-70.4 0-128 57.6-128 128V755.911111c0 70.4 57.6 128 128 128s128-57.6 128-128V0c0-70.4-57.6-128-128-128z"  horiz-adv-x="1024" />

    
    <glyph glyph-name="dianzan" unicode="&#58889;" d="M884.875894 472.856747L646.970506 472.856747c92.185562 340.464205-63.516616 357.853247-63.516616 357.853247-65.993017 0-52.312436-52.182476-57.3031-60.881602 0-166.502152-176.849824-296.971645-176.849824-296.971645l0-472.171899c0-46.607504 63.516616-63.393819 88.433098-63.393819l357.452111 0c33.641191 0 61.036122 88.224344 61.036122 88.224344 88.434122 300.70569 88.434122 390.177444 88.434122 390.177444C944.657442 477.820805 884.875894 472.856747 884.875894 472.856747L884.875894 472.856747 884.875894 472.856747zM884.875894 472.856747M251.671415 472.700181L109.214912 472.700181c-29.420053 0-29.873378-28.89612-29.873378-28.89612l29.420053-476.202703c0-30.309306 30.361495-30.309306 30.361495-30.309306L262.420223-62.70794799999999c25.686009 0 25.458835 20.049638 25.458835 20.049638L287.879058 436.588729C287.879058 473.162716 251.671415 472.700181 251.671415 472.700181L251.671415 472.700181 251.671415 472.700181zM251.671415 472.700181"  horiz-adv-x="1024" />

    
    <glyph glyph-name="nan" unicode="&#58888;" d="M665.2 799.2c-25.6 0-46.4-20.8-46.4-46.4s20.8-46.4 46.4-46.4l117.2 0L566.2 486.8c-50.3 35.9-112 57.3-179.1 57.3-168.2 0-304.5-133.4-304.5-298s136.3-298 304.5-298c168.2 0 304.5 133.4 304.5 298 0 65.8-22.1 126.5-59.1 175.8l215.9 219.3 0-119c0-25.6 20.8-46.4 46.4-46.4s46.4 20.8 46.4 46.4L941.2 799.2 665.2 799.2zM387.2 41c-116.7 0-211.7 92-211.7 205.2 0 113.1 95 205.2 211.7 205.2s211.7-92 211.7-205.2C598.9 133.10000000000002 503.9 41 387.2 41z"  horiz-adv-x="1024" />

    
    <glyph glyph-name="nv" unicode="&#58909;" d="M912.70381 790.063453C845.135563 856.353789 755.801848 892.860221 661.148507 892.860221c-97.253158 0-188.317752-38.224311-256.42096-107.640427-128.35797-130.826796-135.980434-335.669385-24.399284-475.433553L270.471992 197.801119 75.90268 388.69569A43.312953 43.312953 0 0 1 15.234948 326.86004l194.570312-190.90357-136.040429-138.666244a43.312953 43.312953 0 0 1 30.918824-73.646819 43.175963 43.175963 0 0 1 30.917825 12.979087l136.047429 138.667244 194.569312-190.89457a43.175963 43.175963 0 0 1 30.333866-12.395128 43.319952 43.319952 0 0 1 30.340865 74.230778L332.322641 137.126388l109.792276 111.906127c62.550599-48.308601 138.860231-74.591752 219.03359-74.591752 97.259158 0 188.324751 38.23031 256.420961 107.640427 138.695243 141.395053 136.515396 369.272021-4.865658 507.982263z m-56.985991-447.308531c-51.672365-52.676294-120.778503-81.681254-194.583311-81.681254-71.820947 0-139.613178 27.706051-190.888571 78.021511-107.286452 105.250595-108.932336 278.17043-3.673741 385.456883 51.679364 52.669295 120.778503 81.674254 194.583311 81.674254 71.820947 0 139.612178-27.706051 190.880571-78.006512 107.286452-105.250595 108.940336-278.17043 3.681741-385.464882z"  horiz-adv-x="1024" />

    
    <glyph glyph-name="woman" unicode="&#59094;" d="M560 784c-194.4 0-352-157.6-352-352 0-85.7 30.7-164.2 81.6-225.2L240 157.2l-73.4 73.4c-12.5 12.5-32.8 12.5-45.2 0s-12.5-32.8 0-45.2l73.4-73.4-70.4-70.4c-12.5-12.5-12.5-32.8 0-45.2s32.8-12.5 45.2 0l70.4 70.4 73.4-73.4c6.2-6.2 14.4-9.4 22.6-9.4s16.4 3.1 22.6 9.4c12.5 12.5 12.5 32.8 0 45.2L285.2 112l49.6 49.6c61-50.9 139.5-81.6 225.2-81.6 194.4 0 352 157.6 352 352S754.4 784 560 784z m0-640c-158.8 0-288 129.2-288 288s129.2 288 288 288 288-129.2 288-288-129.2-288-288-288z"  horiz-adv-x="1024" />

    
    <glyph glyph-name="tubiaoku--------" unicode="&#58967;" d="M513 832.02c-245.8 0-445.05-199.26-445.05-445.05S267.2-58.08 513-58.08s445.05 199.26 445.05 445.05S758.8 832.02 513 832.02z m211.35-735.95L513 207.18 301.65 96.07l40.36 235.34-170.98 166.67 236.3 34.34L513 746.54l105.68-214.12 236.3-34.34-170.99-166.67 40.36-235.34z"  horiz-adv-x="1024" />

    
    <glyph glyph-name="woman1" unicode="&#58886;" d="M864.6528 739.5712c-59.392 58.272-137.92 90.3616-221.12 90.3616-85.4784 0-165.536-33.6-225.3952-94.624-59.0528-60.1984-91.136-139.7952-90.336-224.128 0.6336-67.1232 22.112-130.8032 61.184-183.8016l-73.5872-75.0016-153.184 150.2848a50.5728 50.5728 0 0 1-70.8352-72.2048l153.1776-150.2848-104.2368-106.2528a50.5728 50.5728 0 1 1 72.2048-70.8352l104.2432 106.2528 153.1776-150.2784a50.5728 50.5728 0 0 1 70.8352 72.2048l-153.184 150.2784L461.12 256.4992c53.0048-37.6512 116.192-58.0352 182.3872-58.0352 85.4848 0 165.5424 33.6 225.4016 94.6176 59.0528 60.1984 91.136 139.808 90.3424 224.1344-0.8 84.3264-34.3936 163.2896-94.592 222.3552zM796.704 363.904c-40.6848-41.4656-95.0848-64.3072-153.1968-64.3072a213.344 213.344 0 0 0-150.272 61.4208c-40.9216 40.1472-63.7504 93.8048-64.288 151.1296-0.5504 57.312 21.248 111.4176 61.4016 152.3392 40.6848 41.4528 95.0784 64.2944 153.1904 64.2944 56.5248 0 109.9008-21.824 150.272-61.4208 40.9088-40.1408 63.744-93.8112 64.288-151.1232 0.5504-57.3184-21.248-111.424-61.3952-152.3328z"  horiz-adv-x="1024" />

    
    <glyph glyph-name="daitarenqian" unicode="&#58887;" d="M624.694857 156.470857a18.285714 18.285714 0 0 0-1.517714 6.272l-7.168 115.510857a18.285714 18.285714 0 0 0 2.358857 10.166857l190.518857 335.542858a85.174857 85.174857 0 0 0 117.632 31.140571 87.844571 87.844571 0 0 0 31.012572-119.625143L767.872 209.206857a18.285714 18.285714 0 0 0-7.734857-7.222857l-110.628572-54.509714a18.267429 18.267429 0 0 0-16.420571 0.109714c-0.310857-4.754286-7.314286-9.691429-17.389714-12.781714-43.227429-13.202286-82.688-25.435429-101.961143-15.323429-17.042286 8.905143-1.170286 27.867429 2.066286 36.534857 2.962286 7.936 26.532571 46.774857 11.885714 40.777143-14.628571-6.034286-36.900571-28.032-51.145143-38.089143-14.244571-10.075429-58.569143-50.486857-73.819429-44.470857-27.867429 6.326857-18.907429 29.44-21.376 56.685714-1.170286 12.818286-3.145143 74.752-29.293714 60.196572-26.148571-14.555429-103.168-68.992-138.331428-116.882286-4.370286-5.942857-16.091429-14.500571-24.137143-16.530286-6.985143-1.755429-8.886857-0.603429-13.275429 0.987429-13.659429 4.900571-4.022857 16.603429 3.657143 25.325714 121.508571 136.996571 168.502857 138.422857 184.246857 136.777143 11.446857-1.133714 31.579429-12.342857 38.509714-33.718857 5.942857-18.413714 7.643429-36.973714 8.996572-51.876571 0.310857-3.254857-0.365714-30.848 0-34.377143 0.365714-3.510857-8.411429-6.546286 35.529143 26.825143 43.940571 33.371429 70.912 62.72 102.528 57.453714 16.329143-2.742857 21.979429-18.066286 14.646857-30.098286-7.314286-12.032-24.100571-45.842286-25.618286-54.162286-1.536-8.32 56.758857 13.568 62.244572 15.177143 10.697143 3.126857 17.700571 3.181714 23.643428 0.457143z m163.803429-10.130286c0 10.057143 9.179429 18.230857 19.273143 18.230858 10.112 0 18.285714-8.155429 18.285714-18.230858h0.219428v-146.706285a73.142857 73.142857 0 0 0-73.142857-73.142857H128a73.142857 73.142857 0 0 0-73.142857 73.142857V768a73.142857 73.142857 0 0 0 73.142857 73.142857h625.133714a73.142857 73.142857 0 0 0 73.142857-73.142857v-36.571429a18.285714 18.285714 0 0 0-18.285714-18.285714c-10.112 0-19.382857 8.192-19.382857 18.285714h-0.329143v17.700572a54.857143 54.857143 0 0 1-54.857143 54.857143H145.462857a54.857143 54.857143 0 0 1-54.857143-54.857143v-731.245714a54.857143 54.857143 0 0 1 54.857143-54.857143H733.44a54.857143 54.857143 0 0 1 54.857143 54.857143v128.457142h0.219428z m123.245714 484.260572a57.344 57.344 0 0 1-78.354286-20.992L643.328 280.393143a18.285714 18.285714 0 0 1-2.413714-10.331429l4.626285-70.125714a18.285714 18.285714 0 0 1 26.331429-15.195429l63.030857 31.049143a18.285714 18.285714 0 0 1 7.753143 7.259429L932.754286 552.265143a57.344 57.344 0 0 1-20.992 78.336z m-724.205714-173.568h393.728a18.285714 18.285714 0 0 0 18.285714-18.157714v-0.073143a18.102857 18.102857 0 0 0-18.121143-18.249143H187.721143a18.285714 18.285714 0 0 0-18.285714 18.157714v0.091429a18.102857 18.102857 0 0 0 18.102857 18.230857z m0.219428 182.930286h164.315429a18.212571 18.212571 0 0 0 0-36.388572h-164.315429a18.212571 18.212571 0 1 0 0 36.388572z"  horiz-adv-x="1024" />

    
    <glyph glyph-name="zhifeiji" unicode="&#58884;" d="M899.6 779c9.9-7.1 13.8-16.7 12-28.5L797.3 64.79999999999995c-1.5-8.6-6.3-15.3-14.3-20.1-4.1-2.3-8.8-3.6-13.8-3.6-3.3 0-6.9 0.8-10.7 2.3L556.3 126 448.2-5.7999999999999545c-5.4-6.9-12.7-10.2-21.9-10.2-3.8 0-7.1 0.6-9.9 1.8-5.6 2.1-10.2 5.5-13.6 10.5-3.4 4.9-5.2 10.3-5.2 16.3V168.29999999999995l385.7 472.8-477.2-413-176.3 72.3c-11 4.1-17 12.3-17.8 24.6-0.6 11.9 4.1 20.7 14.3 26.4L869.1 780c4.5 2.7 9.2 4 14.3 4 6 0 11.4-1.7 16.2-5z"  horiz-adv-x="1024" />

    
    <glyph glyph-name="tianjiaqiushixiaozhitiao" unicode="&#58881;" d="M974.3047 344.3664c-12.2462 12.2462-27.0211 18.3693-44.3455 18.3693H574.7356734693877V717.9591836734694c0 34.6279-28.066 62.6939-62.6939 62.6939h-0.08359183673469388c-34.6279 0-62.6939-28.066-62.6939-62.6939v-355.2235102040816H94.0408163265306c-34.6279 0-62.6939-28.0869-62.6939-62.6939v-0.08359183673469388c0-34.6279 28.066-62.6939 62.6939-62.6939h355.2235102040816V-117.95918367346928c0-34.6279 28.066-62.6939 62.6939-62.6939h0.08359183673469388c34.6279 0 62.6939 28.066 62.6939 62.6939V237.26432653061227H929.9591836734693c17.3244 0 32.0993 6.1231 44.3455 18.3484 12.2253 12.2462 18.3484 27.0211 18.3484 44.3455v0.08359183673469388C992.6531 317.3453 986.53 332.1411 974.3047 344.3664z"  horiz-adv-x="1024" />

    
    <glyph glyph-name="news" unicode="&#59043;" d="M836.736 748.448 363.072 748.448c-64.576 0-115.392-50.88-115.392-115.584l0-664c0-30.976-33.6-56.128-64.512-56.128L181.056-87.264c-30.912 0-56 25.152-56 56.128L125.056 388.256c0 16.896-13.696 30.592-30.528 30.592C77.632 418.848 64 405.152 64 388.256l0-419.392c0-64.704 52.48-117.312 117.056-117.312l2.112 0c64.576 0 125.504 52.608 125.504 117.312L308.672 632.864c0 30.912 23.488 56.064 54.336 56.064l473.664 0c30.912 0 62.208-25.152 62.208-56.064l0-664c0-30.976-31.232-56.128-62.208-56.128l-455.04 0c-16.896 0-30.528-13.76-30.528-30.656s13.632-30.592 30.528-30.592l455.04 0c64.64 0 123.264 52.608 123.264 117.312L959.936 632.864C960 697.504 901.376 748.448 836.736 748.448zM415.168 503.84l371.904 0c16.896 0 30.592 13.632 30.592 30.592 0 16.896-13.696 30.592-30.592 30.592L415.168 565.024c-16.896 0-30.528-13.696-30.528-30.592C384.64 517.472 398.336 503.84 415.168 503.84zM415.168 361.12l371.904 0c16.896 0 30.592 13.632 30.592 30.592 0 16.896-13.696 30.592-30.592 30.592L415.168 422.304c-16.896 0-30.528-13.696-30.528-30.592C384.64 374.752 398.336 361.12 415.168 361.12zM415.168 218.4l371.904 0c16.896 0 30.592 13.696 30.592 30.592S803.968 279.52 787.072 279.52L415.168 279.52c-16.896 0-30.528-13.696-30.528-30.592S398.336 218.4 415.168 218.4zM415.168 75.616l371.904 0c16.896 0 30.592 13.76 30.592 30.656s-13.696 30.592-30.592 30.592L415.168 136.864c-16.896 0-30.528-13.696-30.528-30.592S398.336 75.616 415.168 75.616z"  horiz-adv-x="1024" />

    
    <glyph glyph-name="qiushibaike" unicode="&#58927;" d="M323.434146 456.429268l81.170732 0c15.609756 0 24.97561-8.741463 26.84878-26.84878-2.497561-20.604878-11.239024-30.595122-26.84878-30.595122l-81.170732 0 0-23.726829c38.087805-40.585366 74.302439-85.541463 108.019512-135.492683 11.239024-15.609756 8.741463-30.595122-6.868293-43.707317-15.609756-8.741463-29.346341-5.619512-40.585366 9.990244-26.84878 40.585366-47.453659 69.931707-61.190244 88.039024l0-304.078049c0-15.609756-9.990244-24.97561-30.595122-26.84878-20.604878 2.497561-30.595122 11.239024-30.595122 26.84878L261.619512 321.560976c-15.609756-69.931707-47.453659-137.365854-94.907317-202.926829-13.736585-15.609756-26.84878-19.356098-40.585366-9.990244-13.736585 13.736585-14.985366 28.097561-3.121951 43.707317 58.692683 85.541463 96.780488 167.960976 114.887805 246.634146L174.204878 398.985366c-15.609756 0-23.726829 9.990244-23.726829 30.595122 0 18.107317 8.117073 26.84878 23.726829 26.84878L262.243902 456.429268 262.243902 764.253659c0 18.107317 9.990244 26.84878 30.595122 26.84878s30.595122-8.741463 30.595122-26.84878L323.434146 456.429268zM238.517073 541.346341c2.497561-18.107317-4.370732-30.595122-20.604878-37.463415-18.107317-2.497561-29.346341 5.619512-33.717073 23.726829-4.370732 38.087805-13.736585 82.419512-26.84878 131.746341-2.497561 15.609756-4.370732 28.097561-6.868293 37.463415-4.370732 18.107317 2.497561 31.843902 20.604878 40.585366 18.107317 2.497561 29.346341-5.619512 33.717073-23.726829C220.409756 659.356098 231.64878 601.912195 238.517073 541.346341zM424.585366 727.414634c15.609756-8.741463 21.229268-23.726829 16.858537-43.707317-15.609756-58.692683-31.843902-109.268293-47.453659-152.35122-8.741463-20.604878-21.229268-29.346341-37.463415-26.84878-15.609756 6.868293-21.229268 21.229268-16.858537 43.707317 22.478049 61.190244 38.087805 113.014634 47.453659 155.473171C393.990244 723.668293 406.478049 731.785366 424.585366 727.414634zM816.702439 733.658537c43.082927-2.497561 65.560976-23.726829 67.434146-64.312195l0-246.634146c0-47.453659-22.478049-71.180488-67.434146-71.180488l-26.84878 0c26.84878-26.84878 43.707317-43.707317 50.57561-50.57561 11.239024-13.736585 14.360976-26.22439 9.990244-37.463415l47.453659 0c18.107317 0 26.84878-8.741463 26.84878-26.84878 0-20.604878-8.741463-30.595122-26.84878-30.595122l-169.209756 0c65.560976-85.541463 129.873171-142.360976 192.936585-169.209756 18.107317-8.741463 23.726829-23.726829 16.858537-43.707317-8.741463-20.604878-23.726829-25.6-43.707317-16.858537-83.668293 38.087805-157.970732 109.268293-223.531707 212.917073-43.082927-92.409756-126.126829-163.590244-250.380488-212.917073-20.604878-6.868293-34.965854-1.24878-43.707317 16.858537-6.868293 20.604878-1.24878 33.717073 16.858537 40.585366 106.146341 36.214634 177.95122 93.658537 216.663415 172.331707L462.04878 206.04878c-29.346341 20.604878-29.346341 39.336585 0 57.443902l162.341463 0c0 4.370732 1.24878 13.736585 3.121951 26.84878 6.868293 26.84878 9.990244 47.453659 9.990244 61.190244L522.614634 351.531707c-33.717073 0-50.57561 19.356098-50.57561 57.443902L472.039024 673.092683c0 40.585366 21.229268 61.190244 64.312195 61.190244L624.390244 734.282927c11.239024 13.736585 21.229268 31.843902 30.595122 54.321951 8.741463 18.107317 23.726829 24.97561 43.707317 20.604878 18.107317-8.741463 24.97561-22.478049 20.604878-40.585366-6.868293-13.736585-12.487805-24.97561-16.858537-33.717073L816.702439 734.907317zM532.604878 618.770732l290.965854 0L823.570732 652.487805c0 15.609756-8.117073 23.726829-23.726829 23.726829L549.463415 676.214634c-11.239024 0-16.858537-6.868293-16.858537-20.604878L532.604878 618.770732zM532.604878 561.326829l0-43.707317 290.965854 0 0 43.707317L532.604878 561.326829zM532.604878 425.834146c0-6.868293 5.619512-11.239024 16.858537-13.736585l257.24878 0c13.736585 2.497561 19.356098 6.868293 16.858537 13.736585l0 33.717073L532.604878 459.55122 532.604878 425.834146zM701.814634 351.531707c-2.497561-29.346341-8.117073-58.692683-16.858537-88.039024l104.897561 0c-2.497561 4.370732-11.239024 14.360976-26.84878 30.595122-8.741463 6.868293-14.985366 11.239024-16.858537 13.736585-13.736585 11.239024-13.736585 25.6 0 43.707317L701.814634 351.531707zM1419.239024 737.404878l338.419512 0c18.107317 0 26.84878-8.117073 26.84878-23.726829 0-18.107317-8.741463-26.84878-26.84878-26.84878l-338.419512 0 0-47.453659 233.521951 0c44.956098 0 67.434146-23.726829 67.434146-71.180488l0-33.717073c0-44.956098-22.478049-67.434146-67.434146-67.434146l-233.521951 0 0-61.190244 240.390244 0c44.956098 2.497561 66.185366-19.356098 64.312195-64.312195l0-50.57561 57.443902 0c15.609756 0 24.97561-8.741463 26.84878-26.84878 0-18.107317-8.117073-26.84878-23.726829-26.84878l-57.443902 0 0-43.707317c2.497561-47.453659-20.604878-69.931707-67.434146-67.434146l-240.390244 0 0-54.321951c0-76.8-66.809756-103.64878-199.804878-81.170732-22.478049 4.370732-33.717073 15.609756-33.717073 33.717073 4.370732 22.478049 16.858537 32.468293 37.463415 30.595122 85.541463-18.107317 129.873171-12.487805 131.746341 16.858537l0 54.321951-284.097561 0c-18.107317 0-26.84878 8.741463-26.84878 26.84878 0 15.609756 8.741463 23.726829 26.84878 23.726829L1354.926829 176.702439l0 61.190244-341.541463 0c-15.609756 0-24.97561 8.741463-26.84878 26.84878 0 18.107317 8.117073 26.84878 23.726829 26.84878L1354.926829 291.590244 1354.926829 355.278049l-280.97561 0c-18.107317 0-28.097561 8.741463-30.595122 26.84878 2.497561 15.609756 12.487805 23.726829 30.595122 23.726829l280.97561 0 0 61.190244-229.77561 0c-47.453659 2.497561-71.180488 23.726829-71.180488 64.312195l0 43.707317c0 43.082927 21.229268 64.312195 64.312195 64.312195L1354.926829 639.37561l0 47.453659-338.419512 0c-18.107317 0-26.84878 8.741463-26.84878 26.84878 0 15.609756 8.741463 23.726829 26.84878 23.726829L1354.926829 737.404878l0 30.595122c0 18.107317 11.239024 26.84878 33.717073 26.84878 20.604878 0 30.595122-8.741463 30.595122-26.84878L1419.239024 737.404878zM1117.658537 541.346341c0-15.609756 6.868293-23.726829 20.604878-23.726829L1354.926829 517.619512 1354.926829 588.17561l-212.917073 0c-15.609756 0-23.726829-8.117073-23.726829-23.726829L1118.282927 541.346341zM1419.239024 517.619512l216.663415 0c13.736585 0 20.604878 8.117073 20.604878 23.726829l0 26.84878c0 13.736585-6.868293 20.604878-20.604878 20.604878l-216.663415 0L1419.239024 517.619512zM1419.239024 290.965854l246.634146 0 0 40.585366c0 15.609756-6.868293 23.726829-20.604878 23.726829l-226.653659 0L1418.614634 290.965854zM1419.239024 176.078049l226.653659 0c13.736585 0 19.356098 5.619512 16.858537 16.858537l0 43.707317-243.512195 0L1419.239024 176.078049zM2305.24878 686.829268l-37.463415-108.019512 284.097561 0c47.453659 2.497561 69.931707-20.604878 67.434146-67.434146l0-443.317073c2.497561-47.453659-20.604878-69.931707-67.434146-67.434146l-558.204878 0c-44.956098-2.497561-67.434146 20.604878-67.434146 67.434146l0 443.317073c0 47.453659 22.478049 69.931707 67.434146 67.434146l202.926829 0 33.717073 108.019512-331.55122 0c-20.604878 0-31.843902 11.239024-33.717073 33.717073 2.497561 22.478049 13.736585 33.717073 33.717073 33.717073l744.273171 0c18.107317 0 26.84878-11.239024 26.84878-33.717073 0-22.478049-8.741463-33.717073-26.84878-33.717073L2305.24878 686.829268zM1993.678049 321.560976l561.326829 0L2555.004878 477.034146c0 22.478049-11.239024 33.717073-33.717073 33.717073l-493.892683 0c-22.478049 0-33.717073-11.239024-33.717073-33.717073L1993.678049 321.560976zM2521.287805 67.434146c22.478049 0 33.717073 9.990244 33.717073 30.595122l0 155.473171-561.326829 0 0-155.473171c0-20.604878 11.239024-30.595122 33.717073-30.595122L2521.287805 67.434146zM2944 551.336585l111.765854 0c18.107317-2.497561 26.84878-13.736585 26.84878-33.717073 0-22.478049-8.741463-34.965854-26.84878-37.463415l-111.765854 0 0-16.858537c51.82439-47.453659 96.780488-100.526829 135.492683-159.219512 8.741463-18.107317 5.619512-34.965854-9.990244-50.57561-18.107317-11.239024-32.468293-8.117073-43.707317 9.990244-20.604878 40.585366-47.453659 78.04878-81.170732 111.765854l0-358.4c0-18.107317-9.990244-28.097561-30.595122-30.595122-22.478049 2.497561-33.717073 12.487805-33.717073 30.595122L2880.312195 368.390244c-29.346341-61.190244-67.434146-113.639024-114.887805-159.219512-18.107317-18.107317-34.965854-20.604878-50.57561-6.868293-11.239024 15.609756-9.990244 32.468293 3.121951 50.57561 65.560976 54.321951 116.136585 129.873171 152.35122 226.653659l-121.756098 0c-15.609756 2.497561-23.726829 14.360976-23.726829 37.463415 2.497561 22.478049 11.239024 33.717073 26.84878 33.717073l128.62439 0L2880.312195 679.960976c-29.346341-4.370732-66.809756-6.868293-111.765854-6.868293-15.609756 0-26.22439 9.990244-30.595122 30.595122 0 20.604878 8.117073 31.843902 23.726829 33.717073 110.517073 6.868293 200.429268 19.356098 270.360976 37.463415 20.604878 4.370732 33.717073-3.121951 40.585366-23.726829 2.497561-20.604878-5.619512-33.717073-23.726829-40.585366-13.736585-4.370732-37.463415-8.741463-71.180488-13.736585-15.609756-2.497561-26.84878-4.370732-33.717073-6.868293L2944 551.336585zM3427.902439 277.229268c8.741463 0 21.229268 2.497561 37.463415 6.868293 22.478049 2.497561 37.463415 3.121951 43.707317 3.121951 18.107317 0 28.097561-11.239024 30.595122-33.717073 2.497561-18.107317-5.619512-29.346341-23.726829-33.717073-47.453659-6.868293-76.8-11.239024-88.039024-13.736585l0-199.804878c0-18.107317-11.239024-28.097561-33.717073-30.595122-20.604878 0-31.843902 8.741463-33.717073 26.84878l0 192.936585c-54.321951-8.741463-119.258537-19.356098-196.058537-30.595122-47.453659-6.868293-82.419512-12.487805-104.897561-16.858537-20.604878-2.497561-32.468293 8.117073-37.463415 30.595122-4.370732 22.478049 3.121951 34.965854 23.726829 37.463415 33.717073 4.370732 88.039024 13.736585 162.341463 26.84878 63.063415 8.741463 113.639024 16.858537 152.35122 23.726829L3360.468293 727.414634c0 18.107317 11.239024 28.097561 33.717073 30.595122 22.478049-2.497561 33.717073-12.487805 33.717073-30.595122L3427.902439 277.229268zM3275.55122 388.995122c11.239024-18.107317 9.990244-34.965854-3.121951-50.57561-18.107317-13.736585-33.717073-12.487805-47.453659 3.121951-33.717073 54.321951-73.053659 98.029268-118.634146 131.746341-15.609756 13.736585-16.858537 29.346341-3.121951 47.453659 15.609756 13.736585 31.843902 14.360976 47.453659 3.121951C3198.126829 488.273171 3239.336585 443.317073 3275.55122 388.995122zM3326.75122 571.317073c11.239024-18.107317 9.990244-33.717073-3.121951-47.453659-18.107317-13.736585-33.717073-12.487805-47.453659 3.121951-43.082927 58.692683-85.541463 106.770732-128.62439 145.482927-15.609756 13.736585-18.107317 29.346341-6.868293 47.453659 18.107317 15.609756 34.965854 16.858537 50.57561 3.121951C3245.580488 678.712195 3290.536585 628.136585 3326.75122 571.317073z"  horiz-adv-x="3634" />

    
    <glyph glyph-name="qiushibaikeziyuan" unicode="&#58885;" d="M113.118429 439.197411L138.382018 533.439114c7.699717 31.295626 37.221215 46.482165 53.010957 71.781236 55.885046 49.853009 125.253467 63.868624 196.14764 74.158568 79.906745 2.235402 125.501845 41.230745 143.349577 122.556793 7.096514 32.253655 3.903083 68.623288 35.943842 91.048271 29.521497 7.841648 55.139912-0.319343 78.274547-18.912209a501.723521 501.723521 0 0 0 69.794212-93.603017l24.057182-92.041783c-3.796635-17.741284 8.302921-24.163629 21.502436-28.989258 44.140315-16.109086 77.706825-46.872473 110.457237-78.842268a576.059502 576.059502 0 0 0 53.756091-109.108898c-1.312855-39.456616 12.028591-69.90066 40.875919-99.918914 146.578491-152.575045 77.49393-392.011418-133.591871-459.641194-137.601401-44.104833-280.667118-44.708037-423.519939-34.560022-66.778194 4.754664-133.378976 12.560829-198.276594 30.053736-210.80194 56.77211-280.312292 308.698347-128.19852 465.850644 18.450936 19.125105 36.937354 36.263185 31.153695 65.926612zM598.768346 834.011953c-20.650855-147.820381-104.318752-212.327691-229.394806-219.175827-127.098561-7.096514-193.131621-83.98724-197.67339-212.895412-0.603204-17.386459 0-31.934312-17.528389-44.388693-82.922763-59.894576-112.053952-141.752862-87.145189-240.21699 25.050693-99.031849 97.328686-144.449537 193.025174-161.906961a1404.045242 1404.045242 0 0 1 431.645447-13.199515c39.030826 4.96756 78.87775 10.822183 116.063482 23.099152 86.293607 28.386055 153.74597 80.545431 172.125941 174.787133 17.741284 91.154719-14.618818 166.342282-89.948312 220.559647-19.657343 14.193027-17.386459 30.621457-18.309005 49.249805-5.074007 104.141339-64.64924 180.499827-165.20684 203.776392-28.918293 6.706205-29.55698 19.018657-28.705398 41.762983 2.590228 68.765218-20.508925 127.382421-78.948715 178.548286zM598.768346 834.011953c58.439791-51.165864 81.609908-109.747585 78.913233-178.690216-0.851582-22.744327-0.212895-35.09226 28.705398-41.762983 100.5576-23.276565 160.09735-99.59957 165.206839-203.776392 0.922547-18.592866-1.348338-35.09226 18.309006-49.249806 75.329493-54.217365 107.760561-129.404928 89.948311-220.559646-18.273523-94.277185-85.690403-146.294631-172.12594-174.787133-37.185732-12.276969-76.961691-18.131593-116.063482-23.099153a1404.045242 1404.045242 0 0 0-431.645448 13.199516c-95.802935 17.457424-167.97448 62.875112-193.025173 161.906961-24.837798 98.464128 4.222426 180.322414 87.145188 240.216989 17.492906 12.631794 16.925185 27.002235 17.528389 44.388694 4.506286 129.085585 70.574829 206.118241 197.67339 212.895412 125.111537 6.954583 208.779434 71.497376 229.430289 219.317757z m-99.706018-761.491406c58.29786 2.909571 105.667089 26.115171 139.37553 74.832737 10.36091 14.938161 15.75426 33.992301 39.492099 36.085772 15.61233 1.38382 28.811846 20.544407 17.741284 28.208642-25.370037 17.457424-55.778598 28.59895-85.477508 38.250209-12.489864 4.045013-20.757303-8.941607-21.041163-22.992704a11.070561 11.070561 0 0 1 1.24189-4.932077c21.289541-42.579082-12.596312-59.610715-39.030826-75.96818-46.127339-28.811846-93.283673-17.741284-141.930274 30.444044-14.867196 14.760749-29.911805 27.179648-48.220811 11.531835s-8.906125-34.240679 3.548257-49.994939c34.630987-42.862943 79.835779-63.655728 134.301522-65.500822z m-144.62695 307.63387c0-8.586782 0.212895-17.173563 0-25.760345-0.993512-32.431068 4.541769-59.184925 46.12734-58.014 39.563064 1.135442 41.550088 27.569956 40.414645 57.339831a432.63896 432.63896 0 0 0 13.554341 127.737247c6.49331 24.44749 6.599758 45.807996-22.070157 53.401266s-49.675596-2.057989-59.53975-32.927823a401.556229 401.556229 0 0 1-18.486419-121.776176z m312.849808 75.258528c-10.467358 30.018253-25.724862 43.643559-48.185328 26.718374-23.06367-17.386459-42.579082-39.740477-62.449321-61.030018a27.144165 27.144165 0 0 1-1.028994-37.859901c19.408965-21.715332 39.030826-43.998385 62.200942-61.349361 20.686338-15.505883 52.301306-1.170925 43.962903 17.528389-19.550895 44.104833-53.365783 81.929251 5.464315 115.992517zM499.062328 72.556029c-54.465743 1.774128-99.670535 22.566914-134.017662 65.394374-12.631794 15.75426-22.070158 34.311644-3.548257 49.99494s33.353615 3.228914 48.220811-11.531835c48.611119-48.291776 95.802935-59.25589 141.930275-30.444044 26.292583 16.357464 60.107471 33.318132 39.030825 75.968179a11.070561 11.070561 0 0 0-1.24189 4.932077c0.283861 14.193027 8.551299 27.037717 21.041164 22.992705 29.69891-9.651259 60.107471-20.792785 85.477508-38.250209 11.106044-7.664235-2.057989-26.824822-17.741285-28.208642-23.737838-2.093472-29.166671-21.289541-39.492099-36.085773-33.992301-48.717567-81.36153-71.923167-139.65939-74.761772zM354.435378 380.154417a401.556229 401.556229 0 0 0 18.486419 121.669728c9.828672 30.869835 30.727904 40.556576 59.53975 32.927824s28.563468-28.953776 22.070157-53.401266a432.63896 432.63896 0 0 1-13.554341-127.737247c1.09996-29.769875-0.887064-56.204389-40.414645-57.339831-41.656536-1.170925-47.156334 25.582932-46.12734 58.013999 0.390308 8.693229 0 17.280011 0 25.866793zM667.249703 455.412945c-58.830099-34.063266-25.157141-71.887684-5.53528-115.957034 8.338404-18.699314-23.276565-33.069754-43.962903-17.528389-23.099152 17.315494-42.791978 39.634029-62.200943 61.349361a27.144165 27.144165 0 0 0 1.028995 37.859901c19.870238 21.289541 39.385651 43.679042 62.449321 61.030018 22.495949 16.889703 37.788936 3.264396 48.22081-26.753857z"  horiz-adv-x="1043" />

    
    <glyph glyph-name="wodedangxuan1-copy" unicode="&#58882;" d="M907.264-70.65599999999995H114.688c-16.384 0-32.768 8.192-43.008 20.48-10.24 14.336-14.336 30.72-10.24 47.104 40.96 208.896 210.944 364.544 415.744 380.928 68.608 0 142.848-8.704 217.088-38.912 21.504-8.704 28.672-14.336 40.96-20.48 118.784-67.584 200.704-184.32 227.328-321.536 4.096-16.384 0-32.768-12.288-47.104-10.24-12.288-26.624-20.48-43.008-20.48zM115.712-37.375999999999976c-6.656 0-12.8 2.56-16.384 7.168-0.512 0.512-0.512 1.024-1.024 1.536-5.12 5.12-5.632 13.824-4.608 18.944 37.888 194.56 197.12 340.48 387.584 354.304h15.36c91.648 0 179.712-28.672 222.72-55.808C832 221.18399999999997 907.264 115.20000000000005 930.816-9.727999999999952c1.024-7.168-0.512-13.824-5.632-20.48-3.584-4.608-9.728-7.168-16.384-7.168H115.712zM496.64 332.288c89.088 0 174.592-27.648 216.064-53.76h0.512c109.568-65.024 182.272-167.936 204.8-289.792 0.512-2.56 0.512-6.144-3.584-10.752-0.512-1.024-3.072-2.048-6.144-2.048H115.712c-3.072 0-5.632 1.024-6.144 2.048-0.512 1.024-1.536 2.048-2.56 2.56-1.024 1.024-2.048 4.096-1.024 7.68 36.864 188.928 190.976 330.24 375.808 344.064 4.608-0.512 9.728 0 14.848 0m0 25.6c-5.12 0-10.752 0-15.872-0.512C284.16 343.03999999999996 120.32 193.53599999999994 81.408-7.168000000000006c-2.048-10.24 0-22.528 8.192-30.72 6.144-8.192 16.384-12.288 26.624-12.288H908.8c10.24 0 20.48 4.096 26.624 12.288 6.144 8.192 10.24 18.432 8.192 30.72-24.576 131.072-102.4 238.592-217.088 307.2-43.52 27.136-132.608 57.856-229.888 57.856zM512 359.424c-129.024 0-235.52 106.496-235.52 235.52S382.976 830.4639999999999 512 830.4639999999999s235.52-106.496 235.52-235.52S641.024 359.424 512 359.424zM512 392.704c-111.616 0-202.24 90.624-202.24 202.24S400.384 797.184 512 797.184s202.24-90.624 202.24-202.24-90.624-202.24-202.24-202.24zM512 784.384c104.448 0 189.44-84.992 189.44-189.44S616.448 405.504 512 405.504s-189.44 84.992-189.44 189.44 84.992 189.44 189.44 189.44m0 25.6c-118.784 0-215.04-96.256-215.04-215.04s96.256-215.04 215.04-215.04 215.04 96.256 215.04 215.04S630.784 809.984 512 809.984z"  horiz-adv-x="1024" />

    
    <glyph glyph-name="xiaolian" unicode="&#59084;" d="M511.999-125.034c-280.688 0-509.047 228.348-509.047 509.019 0 280.689 228.361 509.036 509.047 509.036 280.684 0 509.034-228.348 509.034-509.036 0-280.671-228.349-509.019-509.034-509.019zM511.999 810.94c-235.427 0-426.968-191.529-426.968-426.957 0-235.412 191.541-426.939 426.968-426.939 235.428 0 426.955 191.528 426.955 426.939-0.001 235.43-191.528 426.957-426.955 426.957zM412.246 476.926c0-51.324-31.885-92.927-71.258-92.927-39.357 0-71.244 41.603-71.244 92.927 0 51.325 31.886 92.925 71.244 92.925 39.37-0.001 71.258-41.6 71.258-92.925zM754.238 476.926c0-51.324-31.886-92.927-71.256-92.927-39.357 0-71.243 41.603-71.243 92.927 0 51.325 31.885 92.925 71.243 92.925 39.369-0.001 71.256-41.6 71.256-92.925zM511.999 65.147c-122.302 0-232.221 72.877-280.031 185.649l75.56 32.037c34.933-82.371 115.194-135.607 204.473-135.607s169.527 53.237 204.462 135.607l75.56-32.037c-47.813-112.776-157.729-185.649-280.020-185.649z"  horiz-adv-x="1024" />

    
    <glyph glyph-name="pinglun" unicode="&#59034;" d="M510.976 832C229.376 832 0 640.512 0 404.992c0-99.328 39.936-190.464 108.544-263.168 0 0-5.12-180.224-43.008-203.776 0 0 138.24 0 226.304 79.872 66.56-26.624 140.288-40.96 219.136-40.96 281.6 0 510.976 191.488 510.976 427.008C1021.952 640.512 792.576 832 510.976 832z m0-813.056a562.816 562.816 0 0 0-203.776 37.888 41.088 41.088 0 0 1-15.36 3.072 45.952 45.952 0 0 1-27.648-10.24c-38.912-35.84-91.136-53.248-132.096-61.44 4.096 16.384 7.168 34.816 9.216 56.32 5.12 40.96 7.168 78.848 7.168 92.16a40.896 40.896 0 0 1-10.24 33.792C74.752 238.08 40.96 320 40.96 404.992c0 212.992 210.944 386.048 470.016 386.048s470.016-173.056 470.016-386.048-210.944-386.048-470.016-386.048z m-245.76 366.592a55.296 55.296 0 1 1 110.592 0 55.296 55.296 0 0 1-110.592 0z m205.824 0a55.296 55.296 0 1 1 110.592 0 55.296 55.296 0 0 1-110.592 0z m205.824 0a55.296 55.296 0 1 1 110.592 0 55.296 55.296 0 0 1-110.592 0z"  horiz-adv-x="1024" />

    
    <glyph glyph-name="fenxiang" unicode="&#59415;" d="M512 896a43.52 43.52 0 1 0 0-87.04 425.0112 425.0112 0 1 1 425.0112-424.96A43.52 43.52 0 1 0 1024 384c0-282.7264-229.2736-512-512-512S0 101.2736 0 384 229.2736 896 512 896z m263.5264-217.7024a42.8032 42.8032 0 0 0 60.8256 60.1088l74.9568-74.9568a57.8048 57.8048 0 0 0 0-81.8688l-74.9568-74.9568a42.752 42.752 0 0 0-60.4672 60.416l12.6976 12.7488h-55.1936c-150.0672 0-201.0624-63.8976-201.0624-257.1776a42.7008 42.7008 0 0 0-42.752-42.7008 42.7008 42.7008 0 0 0-42.7008 42.7008c0 239.0016 87.1936 342.6304 286.5152 342.6304h55.1936l-13.056 13.056z"  horiz-adv-x="1024" />

    
    <glyph glyph-name="kulian" unicode="&#58923;" d="M511.884929 775.761455c218.247758 0 395.593697-175.944404 395.593697-392.504889 0-216.515232-177.345939-392.411798-395.593697-392.411798-218.223192 0-395.591111 175.896566-395.591111 392.411798 0.001293 216.560485 177.369212 392.504889 395.591111 392.504889z m0-728.842344c187.178667 0 339.070707 150.652121 339.070707 336.338748 0 185.740929-151.89204 336.434424-339.070707 336.434424-187.161859 0-339.073293-150.693495-339.073293-336.434424 0-185.686626 151.912727-336.338747 339.073293-336.338748z m84.791596 420.491636c0 30.951434 25.301333 56.074343 56.481616 56.074344 31.230707 0 56.525576-25.121616 56.525576-56.074344 0-30.999273-25.293576-56.071758-56.525576-56.071757-31.180283 0.001293-56.481616 25.073778-56.481616 56.071757z m-282.589091 0c0 30.951434 25.31297 56.074343 56.515233 56.074344 31.21002 0 56.528162-25.121616 56.528161-56.074344 0-30.999273-25.318141-56.071758-56.528161-56.071757-31.202263 0.001293-56.515232 25.073778-56.515233 56.071757z m359.985132-283.225212c-15.155717-9.784889-35.60598-5.222141-45.491718 9.791354-25.711192 39.898505-69.205333 63.508687-116.695919 63.508687-47.292768 0.168081-91.359677-23.811879-116.690747-63.508687-9.871515-15.087192-30.178263-19.440485-45.499475-9.791354-15.229414 9.77196-19.655111 29.955879-9.879273 45.118061 37.289374 58.519273 102.304323 93.869253 172.069495 93.608081 69.78198 0.259879 134.80598-35.090101 172.10699-93.608081 9.884444-15.018667 5.277737-35.326707-9.919353-45.118061z m0 133.558303"  horiz-adv-x="1024" />

    
    <glyph glyph-name="zuji" unicode="&#58880;" d="M620.958574 512.433114c1.533936-0.741897 3.076058-1.394766 4.650927-1.955538 0.020466-0.007163 0.020466-0.007163 0.020466-0.007163 28.879748-10.285251 63.605643 10.212596 82.518389 48.753377 19.896142 40.460504 12.735046 83.322707-16.273638 97.583502-29.638017 14.173814-67.228147-6.144954-87.188758-46.756907-8.619308-17.568121-12.539594-36.500309-11.007705-53.328579C595.516112 536.187121 605.481068 520.031163 620.958574 512.433114zM644.593877 590.443839c10.199293 20.74037 24.723078 27.288506 27.635407 26.468838 2.527566-1.832741 6.240121-17.295921-3.977591-38.087457-10.188037-20.709671-24.609491-27.293623-27.682479-26.473955C638.065184 554.313967 634.44882 569.788403 644.593877 590.443839zM709.882859 448.128553c2.772136-1.794879 5.774517-3.266393 8.883321-4.373611 0.020466-0.007163 0.020466-0.007163 0.020466-0.007163 23.970948-8.537444 52.750411 4.190439 69.983911 30.965246 19.72218 30.658254 16.013719 67.034742-8.488325 82.813101-24.031323 15.484669-59.372226 3.685949-78.882582-26.574239C681.651888 500.28954 685.379793 463.907934 709.882859 448.128553zM738.780003 506.874515c6.747681 10.467399 15.521508 13.682627 17.195637 13.46671 1.420349-1.77339 2.160199-11.083429-4.591575-21.562085-6.438643-9.991562-14.738679-13.362332-17.392112-13.178137C732.7251 487.932094 732.337267 496.873744 738.780003 506.874515zM849.594855 430.128597c-13.326517 23.736611-50.072419 29.795607-79.622432 13.157671-30.777981-17.305131-44.0124-50.194192-30.146601-74.874291 5.189186-9.245572 13.566994-16.136515 24.177656-19.926842 16.669658-5.937223 37.412075-3.413749 55.481615 6.745634 13.400195 7.534604 24.124444 18.557658 30.157857 31.032784C856.902284 401.20587 856.884888 417.206286 849.594855 430.128597zM797.702997 393.987468c-7.661494-4.295839-15.015995-4.891404-18.681478-3.63069 0.375553 2.717901 3.824095 9.171893 12.737092 14.183024 7.717775 4.327562 15.116279 4.9088 18.86158 4.425799C810.823829 406.819728 807.415196 399.44783 797.702997 393.987468zM626.872261 488.397698l-150.978597 92.975555-3.108804 1.591241c-39.237653 16.60212-82.194 13.796214-117.144-6.55223-30.54876-17.791202-51.474348-47.295166-57.403385-80.963986-6.356778-36.132942 5.65172-76.376505 17.272385-115.292839 12.71151-42.577724 25.846668-86.620823 11.729136-117.294426-14.262842-30.989805-35.348066-44.245713-59.761082-59.565631-26.155706-16.430204-55.810097-35.046191-77.259618-76.567863-16.449647-31.823799-18.729573-68.348668-6.252401-100.196003 9.957793-25.39539 34.367739-60.202127 94.121658-81.806167l0.695848-0.24764c0.010233-0.004093 0 0 0.010233-0.004093 72.417333-25.791409 146.981563 32.166607 175.894056 72.828702 0.449231 0.474814 0.706081 1.109264 1.11438 1.627057 0.960885 1.39579 2.01489 2.827395 2.861164 4.173043l-0.260943 0.152473c0.337691 0.708128 0.919952 1.221828 1.189082 1.977028 4.218068 11.841699-1.963725 24.861224-13.807471 29.079292-9.821693 3.497661-20.154016-0.414439-25.900903-8.519024l-0.280386 0.164752c-39.869033-44.026726-79.69918-76.047-126.382409-59.420321-34.926464 12.623505-58.379619 32.06223-67.855434 56.225559-7.80271 19.925818-6.227842 43.081191 4.341888 63.539128 15.888875 30.733978 36.984333 43.985794 61.415768 59.323107 26.573215 16.695241 56.707536 35.625382 76.515674 78.653361 21.129226 45.899376 5.547343 98.119715-9.521864 148.60248-10.602476 35.523051-20.62883 69.079308-16.092513 94.855368 3.654226 20.74344 16.769942 39.062668 35.986609 50.241264 21.511943 12.517081 48.028876 14.654768 72.757071 5.848195 1.124614-0.401136 2.252297-0.825808 3.373841-1.270946l148.697647-91.551112c54.338582-36.453237 66.301032-81.554434 37.682227-141.851729-34.492582-71.88726-78.214363-114.12627-117.170606-150.628626l0.10847-0.110517c-2.364861-2.332115-4.367471-5.069459-5.556553-8.408507-4.218068-11.843746 1.962701-24.863271 13.805424-29.080316 8.373715-2.981914 17.194614-0.569982 23.216771 5.169743l0.138146-0.14224c38.988989 36.756135 89.212858 88.24174 125.585253 164.046217C718.897164 370.5425 700.546214 438.995545 626.872261 488.397698zM370.909611 598.192314c5.810333-2.069125 11.861142-3.324722 17.965164-3.724835 48.374754-3.145643 89.645716 46.145993 93.955882 112.220874 3.675716 56.459896-21.259186 105.683994-60.641125 119.710452-5.819542 2.072195-11.861142 3.324722-17.963117 3.723811-24.394596 1.590218-48.533366-10.694573-66.222237-33.69952-15.935947-20.7373-25.791409-48.606021-27.733645-78.486562-3.673669-56.484456 21.25714-105.718787 60.629869-119.742175C370.909611 598.192314 370.909611 598.192314 370.909611 598.192314zM354.643136 715.040578c1.358951 20.869307 8.142447 40.660048 18.614963 54.273091 4.987594 6.497994 15.277962 17.272385 28.072359 16.437367 2.036379-0.137123 3.978614-0.541329 5.941316-1.240247 17.323551-6.169513 33.732266-35.878139 31.187303-74.925457-2.826372-43.302225-26.878161-72.03871-46.687322-70.745251-2.036379 0.137123-3.978614 0.541329-5.942339 1.24127C368.504842 646.250866 352.105337 675.979958 354.643136 715.040578zM520.159844 572.4183c32.121582-11.440563 69.803809 14.734586 85.778642 59.588143 15.96767 44.834114 3.307326 88.914052-28.815279 100.354616s-69.796646-14.713097-85.764316-59.547211C475.384058 627.960291 488.037239 583.858864 520.159844 572.4183zM562.205449 690.474067c3.958148-1.409093 10.739599-18.575054 1.845021-43.548842-8.904811-25.004487-25.01472-34.029024-28.971845-32.619932-3.958148 1.410116-10.735505 18.585287-1.829671 43.589774C542.141484 682.868855 558.2473 691.883159 562.205449 690.474067z"  horiz-adv-x="1024" />

    
    <glyph glyph-name="zuji1" unicode="&#58883;" d="M614.741784 426.161122c1.518583-0.734732 3.048423-1.382484 4.605892-1.934045l0.017396-0.00921c28.614654-10.189039 63.017116 10.119455 81.752792 48.300979 19.712931 40.082824 12.61427 82.54483-16.12318 96.67359-29.362689 14.04485-66.600728-6.089683-86.37608-46.320886-8.537427-17.406404-12.422912-36.159476-10.902282-52.833193C589.532686 449.696095 599.405524 433.687524 614.741784 426.161122L614.741784 426.161122zM638.152936 503.447192c10.106152 20.544877 24.496878 27.031603 27.381573 26.219099 2.504025-1.814318 6.18178-17.134205-3.942791-37.731271-10.090802-20.514178-24.381245-27.040812-27.424551-26.227285C631.685654 467.652013 628.107159 482.982132 638.152936 503.447192L638.152936 503.447192zM702.834968 362.454299c2.746548-1.776456 5.722317-3.232618 8.803486-4.328577l0.020466-0.010233c23.745773-8.455562 52.257073 4.154615 69.333973 30.676612 19.536923 30.37576 15.862238 66.41244-8.41156 82.041364-23.806148 15.340353-58.818499 3.652173-78.149738-26.324499C674.869089 414.130136 678.559124 378.08834 702.834968 362.454299L702.834968 362.454299zM731.467018 420.656769c6.679106 10.367094 15.372075 13.553664 17.031874 13.340816 1.407043-1.761106 2.142799-10.97903-4.545517-21.361474-6.381325-9.901491-14.603574-13.238486-17.231419-13.055314C725.463293 401.887325 725.080577 410.750162 731.467018 420.656769L731.467018 420.656769zM841.244018 344.623224c-13.200624 23.514506-49.602622 29.517208-78.876284 13.037918-30.495487-17.143414-43.604013-49.729512-29.866155-74.177271 5.135964-9.160619 13.437007-15.987081 23.94941-19.74056 16.514082-5.881952 37.063053-3.387137 54.964736 6.679106 13.275325 7.466027 23.901315 18.387752 29.875365 30.746197C848.487988 315.972755 848.466499 331.823736 841.244018 344.623224L841.244018 344.623224zM789.837311 308.816789c-7.5878-4.250805-14.872703-4.842275-18.506456-3.593844 0.372483 2.690267 3.788272 9.084894 12.621433 14.053036 7.642035 4.285598 14.969916 4.860695 18.681441 4.382812C802.837367 321.530319 799.460463 314.230068 789.837311 308.816789L789.837311 308.816789zM620.598153 402.351905l-149.576368 92.107607-3.076052 1.577935c-38.872255 16.445521-81.432498 13.665204-116.052924-6.491842-30.266267-17.628461-50.995339-46.854027-56.873198-80.208626-6.293321-35.795179 5.60259-75.664132 17.115785-114.21814 12.591758-42.182644 25.60307-85.81531 11.618595-116.20335-14.129784-30.704241-35.017468-43.837327-59.204285-59.011904-25.914154-16.276676-55.29117-34.722757-76.542127-75.853444-16.296119-31.530048-18.555574-67.714082-6.19099-99.269713 9.863629-25.157933 34.045329-59.638166 93.244498-81.039549l0.68766-0.24457 0.00921-0.00614c71.741808-25.551905 145.613111 31.868761 174.254371 72.150106 0.446161 0.47379 0.70301 1.096982 1.108238 1.614774 0.949626 1.380437 1.993396 2.79976 2.835576 4.131079l-0.261966 0.149402c0.335644 0.70301 0.914834 1.215685 1.17987 1.959627 4.179174 11.730136-1.944278 24.630931-13.680553 28.810105-9.731622 3.463885-19.967734-0.411368-25.660375-8.440213l-0.276292 0.163729c-39.49647-43.617316-78.955079-75.341792-125.204333-58.870688-34.602007 12.510917-57.836127 31.768477-67.224943 55.703562-7.73004 19.739537-6.167454 42.67997 4.300947 62.949578 15.740464 30.451485 36.642475 43.578431 60.843618 58.774497 26.326546 16.537618 56.180421 35.292737 75.807395 77.920518 20.92964 45.469497 5.49412 97.205708-9.432818 147.218675-10.507287 35.19143-20.437431 68.433465-15.945125 93.968997 3.618403 20.549994 16.61232 38.698293 35.65294 49.772491 21.312356 12.402446 47.57955 14.520686 72.080521 5.793948 1.112332-0.396019 2.228756-0.81762 3.342111-1.256618l147.313843-90.701587c53.829892-36.110357 65.680777-80.79191 37.329112-140.529336-34.170172-71.219922-77.485614-113.062829-116.07646-149.227421l0.106424-0.106424c-2.34746-2.313691-4.3296-5.025447-5.505376-8.329696-4.179174-11.736275 1.945301-24.632978 13.675437-28.812152 8.295927-2.955302 17.034944-0.565887 23.001831 5.123684l0.135076-0.140193c38.627685 36.411208 88.38278 87.415757 124.417412 162.515026C711.76739 285.593924 693.586345 353.407267 620.598153 402.351905L620.598153 402.351905zM367.020314 511.12402c5.756086-2.050702 11.749578-3.294016 17.796283-3.689011 47.924403-3.121078 88.809498 45.71202 93.079746 111.175856 3.642963 55.934828-21.061646 104.699364-60.07614 118.593788-5.765296 2.054795-11.748555 3.292993-17.796283 3.690035-24.166351 1.577935-48.083016-10.593245-65.603006-33.387345-15.789583-20.543854-25.551905-48.150554-27.477763-77.755766-3.641939-55.957341 21.057553-104.734157 60.065907-118.626534L367.020314 511.125043 367.020314 511.12402zM350.901227 626.883255c1.349738 20.673814 8.068753 40.279298 18.445057 53.76747 4.939489 6.437606 15.135692 17.113739 27.809314 16.286909 2.018979-0.134053 3.942791-0.536211 5.889115-1.228988 17.160811-6.113219 33.414974-35.543446 30.894576-74.227413-2.800783-42.898957-26.629444-71.370348-46.255394-70.090195-2.016932 0.135076-3.941768 0.538258-5.887069 1.228988C364.634992 558.734269 348.391062 588.183939 350.901227 626.883255L350.901227 626.883255zM514.878555 485.587465c31.825782-11.33207 69.154895 14.59948 84.98234 59.03544 15.819259 44.416517 3.27662 88.083975-28.549163 99.417068-31.820666 11.33514-69.144662-14.572874-84.962897-58.989391C470.51832 540.613599 483.052772 496.923628 514.878555 485.587465L514.878555 485.587465zM556.533173 602.546013c3.922325-1.397833 10.642363-18.402079 1.828645-43.14455-8.822928-24.772147-24.781357-33.712755-28.704705-32.320038-3.917208 1.397833-10.63213 18.416405-1.810225 43.188552C536.65549 595.010401 552.608802 603.939753 556.533173 602.546013L556.533173 602.546013zM556.533173 602.546013"  horiz-adv-x="1024" />

    
    <glyph glyph-name="fatie" unicode="&#59111;" d="M128 160v-160h160l471.467 471.467-160 160L128 160z m755.2 435.2c17.067 17.067 17.067 42.667 0 59.733L782.933 755.2c-17.066 17.067-42.666 17.067-59.733 0l-78.933-78.933 160-160L883.2 595.2z"  horiz-adv-x="1024" />

    
    <glyph glyph-name="fatie1" unicode="&#58991;" d="M965.548507 556.196624l-25.577444-25.577444-281.351883 281.351883 25.577444 25.577444c51.154888 51.154888 121.492858 70.337971 191.830829 51.154888s121.492858-70.337971 140.675942-140.675942c19.183083-70.337971 0-140.675941-51.154888-191.830829zM409.239102-0.112781H895.210536c38.366166 0 63.94361-25.577444 63.94361-63.943609s-25.577444-63.94361-63.94361-63.94361H44.760527 38.366166c-12.788722 0-19.183083 0-31.971805 12.788722-6.394361 6.394361-6.394361 25.577444-6.394361 38.366166l63.94361 242.985717c12.788722 38.366166 31.971805 76.732332 63.943609 108.704136l249.380078 249.380078 185.436469 185.436468 281.351882-281.351882-185.436468-185.436469L409.239102-0.112781z"  horiz-adv-x="1024" />

    
    <glyph glyph-name="add" unicode="&#58980;" d="M853.333333 416H544V725.333333c0 17.066667-14.933333 32-32 32s-32-14.933333-32-32v-309.333333H170.666667c-17.066667 0-32-14.933333-32-32s14.933333-32 32-32h309.333333V42.666667c0-17.066667 14.933333-32 32-32s32 14.933333 32 32V352H853.333333c17.066667 0 32 14.933333 32 32s-14.933333 32-32 32z"  horiz-adv-x="1024" />

    
    <glyph glyph-name="arrow-down" unicode="&#58981;" d="M512 181.333333c-8.533333 0-17.066667 2.133333-23.466667 8.533334l-341.333333 341.333333c-12.8 12.8-12.8 32 0 44.8 12.8 12.8 32 12.8 44.8 0l320-317.866667 317.866667 320c12.8 12.8 32 12.8 44.8 0 12.8-12.8 12.8-32 0-44.8L533.333333 192c-4.266667-8.533333-12.8-10.666667-21.333333-10.666667z"  horiz-adv-x="1024" />

    
    <glyph glyph-name="arrow-right" unicode="&#58982;" d="M320 10.666667c-8.533333 0-17.066667 4.266667-23.466667 10.666666-12.8 12.8-10.666667 34.133333 2.133334 44.8L654.933333 384 298.666667 701.866667c-12.8 10.666667-14.933333 32-2.133334 44.8 10.666667 12.8 32 14.933333 44.8 2.133333l384-341.333333c6.4-6.4 10.666667-14.933333 10.666667-23.466667 0-8.533333-4.266667-17.066667-10.666667-23.466667l-384-341.333333c-6.4-6.4-12.8-8.533333-21.333333-8.533333z"  horiz-adv-x="1024" />

    
    <glyph glyph-name="browse" unicode="&#58983;" d="M512 59.733333C230.4 59.733333 74.666667 362.666667 68.266667 375.466667c-4.266667 8.533333-4.266667 19.2 0 29.866666 6.4 12.8 164.266667 315.733333 443.733333 315.733334 281.6 0 437.333333-305.066667 443.733333-317.866667 4.266667-8.533333 4.266667-19.2 0-29.866667-6.4-10.666667-162.133333-313.6-443.733333-313.6zM132.266667 390.4c34.133333-57.6 170.666667-266.666667 379.733333-266.666667s345.6 209.066667 379.733333 266.666667c-34.133333 57.6-170.666667 266.666667-379.733333 266.666667S166.4 448 132.266667 390.4zM512 245.333333c-76.8 0-138.666667 61.866667-138.666667 138.666667s61.866667 138.666667 138.666667 138.666667 138.666667-61.866667 138.666667-138.666667-61.866667-138.666667-138.666667-138.666667z m0 213.333334c-40.533333 0-74.666667-34.133333-74.666667-74.666667s34.133333-74.666667 74.666667-74.666667 74.666667 34.133333 74.666667 74.666667-34.133333 74.666667-74.666667 74.666667z"  horiz-adv-x="1024" />

    
    <glyph glyph-name="bottom" unicode="&#58984;" d="M896 32H128c-17.066667 0-32-14.933333-32-32s14.933333-32 32-32h768c17.066667 0 32 14.933333 32 32s-14.933333 32-32 32zM488.533333 168.533333c6.4-6.4 14.933333-8.533333 23.466667-8.533333s17.066667 2.133333 23.466667 8.533333l213.333333 213.333334c12.8 12.8 12.8 32 0 44.8-12.8 12.8-32 12.8-44.8 0l-157.866667-157.866667V725.333333c0 17.066667-14.933333 32-32 32s-34.133333-14.933333-34.133333-32v-456.533333L322.133333 426.666667c-12.8 12.8-32 12.8-44.8 0-12.8-12.8-12.8-32 0-44.8l211.2-213.333334z"  horiz-adv-x="1024" />

    
    <glyph glyph-name="arrow-double-left" unicode="&#58985;" d="M842.666667 32c-8.533333 0-14.933333 2.133333-21.333334 8.533333l-341.333333 309.333334c-6.4 6.4-10.666667 14.933333-10.666667 23.466666 0 8.533333 4.266667 17.066667 10.666667 23.466667l341.333333 309.333333c12.8 12.8 34.133333 10.666667 44.8-2.133333 12.8-12.8 10.666667-34.133333-2.133333-44.8L548.266667 373.333333l315.733333-285.866666c12.8-10.666667 14.933333-32 2.133333-44.8-6.4-6.4-14.933333-10.666667-23.466666-10.666667zM512 32c-8.533333 0-14.933333 2.133333-21.333333 8.533333L149.333333 349.866667c-6.4 6.4-10.666667 14.933333-10.666666 23.466666 0 8.533333 4.266667 17.066667 10.666666 23.466667L490.666667 706.133333c12.8 12.8 34.133333 10.666667 44.8-2.133333 12.8-12.8 10.666667-34.133333-2.133334-44.8L217.6 373.333333 533.333333 87.466667c12.8-12.8 14.933333-32 2.133334-44.8-6.4-6.4-14.933333-10.666667-23.466667-10.666667z"  horiz-adv-x="1024" />

    
    <glyph glyph-name="arrow-double-right" unicode="&#58986;" d="M544 373.333333c0 8.533333-4.266667 17.066667-10.666667 23.466667L192 706.133333c-12.8 12.8-34.133333 10.666667-44.8-2.133333-12.8-12.8-10.666667-34.133333 2.133333-44.8l315.733334-285.866667L149.333333 87.466667c-12.8-12.8-14.933333-32-2.133333-44.8 6.4-6.4 14.933333-10.666667 23.466667-10.666667 8.533333 0 14.933333 2.133333 21.333333 8.533333l341.333333 309.333334c6.4 6.4 10.666667 14.933333 10.666667 23.466666zM864 396.8l-341.333333 309.333333c-12.8 12.8-34.133333 10.666667-44.8-2.133333-12.8-12.8-10.666667-34.133333 2.133333-44.8l315.733333-285.866667-315.733333-285.866666c-12.8-12.8-14.933333-32-2.133333-44.8 6.4-6.4 14.933333-10.666667 23.466666-10.666667 8.533333 0 14.933333 2.133333 21.333334 8.533333l341.333333 309.333334c6.4 6.4 10.666667 14.933333 10.666667 23.466666 0 8.533333-4.266667 17.066667-10.666667 23.466667z"  horiz-adv-x="1024" />

    
    <glyph glyph-name="close" unicode="&#58987;" d="M556.8 384L832 659.2c12.8 12.8 12.8 32 0 44.8-12.8 12.8-32 12.8-44.8 0L512 428.8l-275.2 277.333333c-12.8 12.8-32 12.8-44.8 0-12.8-12.8-12.8-32 0-44.8l275.2-277.333333-277.333333-275.2c-12.8-12.8-12.8-32 0-44.8 6.4-6.4 14.933333-8.533333 23.466666-8.533333s17.066667 2.133333 23.466667 8.533333L512 339.2 787.2 64c6.4-6.4 14.933333-8.533333 23.466667-8.533333s17.066667 2.133333 23.466666 8.533333c12.8 12.8 12.8 32 0 44.8L556.8 384z"  horiz-adv-x="1024" />

    
    <glyph glyph-name="direction-down" unicode="&#58988;" d="M898.133333 384c-12.8 12.8-32 12.8-44.8 2.133333L544 96V746.666667c0 17.066667-14.933333 32-32 32s-32-14.933333-32-32v-650.666667L170.666667 386.133333c-12.8 12.8-34.133333 10.666667-44.8-2.133333-12.8-12.8-10.666667-34.133333 2.133333-44.8l362.666667-341.333333c2.133333-2.133333 6.4-4.266667 8.533333-6.4 4.266667-2.133333 6.4-2.133333 10.666667-2.133334s8.533333 0 10.666666 2.133334c4.266667 2.133333 6.4 4.266667 8.533334 6.4l362.666666 341.333333c17.066667 12.8 19.2 32 6.4 44.8z"  horiz-adv-x="1024" />

    
    <glyph glyph-name="direction-right" unicode="&#58989;" d="M904.533333 373.333333c2.133333 4.266667 2.133333 6.4 2.133334 10.666667s0 8.533333-2.133334 10.666667c-2.133333 4.266667-4.266667 6.4-6.4 8.533333l-341.333333 362.666667c-12.8 12.8-32 12.8-44.8 2.133333-12.8-12.8-12.8-32-2.133333-44.8l290.133333-309.333333H149.333333c-17.066667 0-32-14.933333-32-32s14.933333-32 32-32h650.666667L509.866667 42.666667c-12.8-12.8-10.666667-34.133333 2.133333-44.8 6.4-6.4 14.933333-8.533333 21.333333-8.533334 8.533333 0 17.066667 4.266667 23.466667 10.666667l341.333333 362.666667c2.133333 2.133333 4.266667 6.4 6.4 10.666666z"  horiz-adv-x="1024" />

    
    <glyph glyph-name="direction-left" unicode="&#58990;" d="M874.666667 416H224L514.133333 725.333333c12.8 12.8 10.666667 34.133333-2.133333 44.8s-32 10.666667-44.8-2.133333l-341.333333-362.666667c-2.133333-2.133333-4.266667-6.4-6.4-8.533333-2.133333-4.266667-2.133333-6.4-2.133334-10.666667s0-8.533333 2.133334-10.666666c2.133333-4.266667 4.266667-6.4 6.4-8.533334l341.333333-362.666666c6.4-6.4 14.933333-10.666667 23.466667-10.666667 8.533333 0 14.933333 2.133333 21.333333 8.533333 12.8 12.8 12.8 32 2.133333 44.8L224 352H874.666667c17.066667 0 32 14.933333 32 32s-14.933333 32-32 32z"  horiz-adv-x="1024" />

    


  </font>
</defs>
</svg>
